<svg width="217" height="32" viewBox="0 0 217 32" fill="none" xmlns="http://www.w3.org/2000/svg">
    <path d="M0.714355 31.5661L7.77645 2.11002H15.5529L10.1564 24.6116H15.9862L14.3172 31.5661H0.714355Z" fill="#CE0200"/>
    <path d="M34.2878 24.5735C32.3073 29.3417 28.1262 31.9965 23.627 31.9965C17.4146 31.9965 15.3562 27.7002 16.8086 21.6445C18.2237 15.7449 22.7941 10.5117 28.9692 10.5117C32.0568 10.5117 33.9865 11.8408 34.948 13.871C36.2446 16.5674 35.7436 19.6144 34.9649 22.8556H23.9892C23.698 24.0668 23.4204 26.0206 24.9845 26.0206C25.8241 26.0206 26.6197 25.3959 26.9684 24.5735H34.2878ZM28.4513 18.7121C28.6848 17.5807 28.6205 16.0954 27.2866 16.0954C26.0306 16.0954 25.1978 17.6571 24.9811 18.7121H28.4513Z" fill="#CE0200"/>
    <path d="M49.9288 2.11002H57.3226L59.2828 19.8469L59.3776 19.767C59.8888 16.3696 60.1224 13.0068 60.9383 9.60939L62.736 2.11002H70.2043L63.1422 31.5661H55.6739L53.9541 14.572L53.8593 14.6518C53.3853 17.4246 53.0705 20.1592 52.4069 22.9354L50.335 31.5696H42.8633L49.9288 2.11002Z" fill="#CE0200"/>
    <path d="M85.3508 21.2524C83.9661 27.034 79.8392 31.9965 73.4001 31.9965C66.9609 31.9965 65.214 27.034 66.602 21.2524C67.9901 15.4708 72.1136 10.5083 78.5528 10.5083C84.9919 10.5083 86.7354 15.4708 85.3508 21.2524ZM73.918 21.2524C73.4136 23.3624 72.987 26.2531 74.778 26.2531C76.5689 26.2531 77.5303 23.3624 78.0348 21.2524C78.5392 19.1424 78.9658 16.2517 77.1749 16.2517C75.384 16.2517 74.4225 19.1424 73.918 21.2524Z" fill="#CE0200"/>
    <path d="M96.3505 10.9386L93.6895 22.0332C93.1005 24.4937 92.9888 25.5868 94.2854 25.5868C95.6193 25.5868 96.0255 24.5319 96.6247 22.0332L99.2857 10.9386H106.757L103.843 23.0882C102.38 29.1856 98.2362 31.9965 92.7484 31.9965C86.9558 31.9965 84.6165 28.7136 85.9673 23.0882L88.8822 10.9386H96.3505Z" fill="#CE0200"/>
    <path d="M107.865 31.5662L107.245 10.9386H114.791L114.158 19.6109C114.04 21.0581 113.772 22.6579 113.613 24.105H113.691C114.229 22.6579 114.801 21.0581 115.34 19.6109L119.098 10.9386H126.454L115.678 31.5662H107.865Z" fill="#CE0200"/>
    <path d="M140.105 24.5735C138.124 29.3382 133.943 31.9965 129.444 31.9965C123.232 31.9965 121.173 27.7002 122.626 21.6445C124.041 15.7449 128.611 10.5117 134.786 10.5117C137.874 10.5117 139.803 11.8408 140.765 13.871C142.062 16.5674 141.56 19.6144 140.782 22.8556H129.806C129.515 24.0668 129.237 26.0206 130.801 26.0206C131.641 26.0206 132.437 25.3959 132.785 24.5735H140.105ZM134.272 18.7121C134.505 17.5807 134.441 16.0954 133.107 16.0954C131.848 16.0954 131.018 17.6571 130.801 18.7121H134.272Z" fill="#CE0200"/>
    <path d="M139.949 31.5661L147.414 0.430344H154.886L147.421 31.5661H139.949Z" fill="#CE0200"/>
    <path d="M149.546 31.5661L157.011 0.430344H164.483L157.018 31.5661H149.546Z" fill="#CE0200"/>
    <path d="M159.141 31.5661L164.087 10.9385H171.559L166.613 31.5661H159.141ZM165.032 4.45243C165.611 2.03014 168.041 0 170.404 0C172.805 0 174.365 1.91562 173.766 4.41426C173.177 6.87472 170.773 8.9465 168.336 8.9465C165.936 8.9465 164.432 6.95453 165.032 4.45243Z" fill="#CE0200"/>
    <path d="M171.85 24.1432C172.493 25.1183 173.698 26.2913 175.069 26.2913C175.716 26.2913 176.593 25.979 176.772 25.2363C176.952 24.4937 176.407 24.0634 175.222 23.5949C172.54 22.5399 170.59 20.9782 171.433 17.4628C172.456 13.2047 176.491 10.5083 181.18 10.5083C183.201 10.5083 185.405 11.1711 186.912 12.1879L183.018 17.7751C182.338 16.9561 181.59 15.9393 180.334 15.9393C179.799 15.9393 179.145 16.2898 178.986 16.9561C178.732 18.0111 180.049 18.5594 180.777 18.8718C183.232 19.9267 185.046 21.412 184.241 24.7713C183.127 29.4215 178.621 32 174.467 32C171.724 32 169.785 31.181 167.74 29.8519L171.85 24.1432Z" fill="#CE0200"/>
    <path d="M215.373 24.5735C213.393 29.3382 209.212 31.9965 204.713 31.9965C198.5 31.9965 196.445 27.7002 197.894 21.6445C199.309 15.7449 203.88 10.5117 210.055 10.5117C213.142 10.5117 215.072 11.8408 216.034 13.871C217.33 16.5674 216.829 19.6144 216.05 22.8556H205.075C204.784 24.0668 204.506 26.0206 206.07 26.0206C206.91 26.0206 207.705 25.3959 208.054 24.5735H215.373ZM209.537 18.7121C209.77 17.5807 209.706 16.0954 208.372 16.0954C207.116 16.0954 206.283 17.6571 206.067 18.7121H209.537Z" fill="#CE0200"/>
    <path d="M184.941 31.5661L188.418 17.0706H186.285L187.755 10.9385H189.888L191.34 4.8828H198.808L197.356 10.9385H200.9L199.431 17.0706H195.887L192.41 31.5661H184.941Z" fill="#CE0200"/>
</svg>
